<?xml version="1.0" standalone="no"?>
<!DOCTYPE svg PUBLIC "-//W3C//DTD SVG 20010904//EN"
 "http://www.w3.org/TR/2001/REC-SVG-20010904/DTD/svg10.dtd">
<svg version="1.0" xmlns="http://www.w3.org/2000/svg"
 width="384.000000pt" height="397.000000pt" viewBox="0 0 384.000000 397.000000"
 preserveAspectRatio="xMidYMid meet">

<g transform="translate(0.000000,397.000000) scale(0.100000,-0.100000)"
fill="#FFFFFF" stroke="none">
<path d="M1810 3822 c-84 -95 -445 -499 -979 -1097 -29 -33 -213 -239 -410
-458 -196 -219 -363 -410 -371 -424 -19 -30 -206 154 1433 -1405 241 -230 445
-418 454 -418 18 0 46 26 469 430 175 167 456 435 624 595 168 160 416 396
553 525 167 158 247 241 247 255 0 12 -220 266 -576 665 -317 355 -658 737
-759 850 -100 113 -261 293 -357 400 -125 140 -181 196 -198 198 -21 2 -43
-18 -130 -116z m392 -540 l257 -517 58 -41 c87 -61 88 -61 55 2 -117 224 -441
885 -433 883 6 -2 73 -74 148 -160 76 -85 212 -238 303 -340 198 -222 439
-492 615 -689 72 -80 204 -228 293 -329 90 -100 162 -184 160 -186 -1 -1 -61
12 -133 30 -71 18 -222 57 -335 86 -113 28 -211 52 -219 53 -7 1 -19 -16 -27
-36 -7 -21 -11 -38 -8 -38 12 0 759 -191 763 -196 3 -2 -4 -13 -15 -23 -61
-58 -720 -684 -889 -846 -520 -497 -804 -765 -809 -765 -3 0 -6 193 -6 430 l0
430 -40 0 -40 0 0 -430 c0 -237 -3 -430 -6 -430 -9 0 -67 54 -309 285 -110
105 -346 330 -525 500 -716 680 -891 850 -883 852 4 2 105 27 223 57 390 99
495 126 507 130 9 4 9 14 1 40 -6 20 -15 36 -19 36 -5 0 -157 -38 -339 -84
-181 -46 -330 -81 -330 -77 0 4 28 39 63 77 65 72 397 445 552 619 527 592
898 1005 902 1002 2 -3 -97 -208 -221 -456 -124 -248 -220 -448 -213 -444 7 4
39 26 70 48 l58 40 250 503 c138 276 253 502 257 502 4 0 123 -233 264 -518z"/>
</g>
</svg>
