<?xml version="1.0" standalone="no"?>
<!DOCTYPE svg PUBLIC "-//W3C//DTD SVG 20010904//EN"
 "http://www.w3.org/TR/2001/REC-SVG-20010904/DTD/svg10.dtd">
<svg version="1.0" xmlns="http://www.w3.org/2000/svg"
 width="384.000000pt" height="397.000000pt" viewBox="0 0 384.000000 397.000000"
 preserveAspectRatio="xMidYMid meet">

<g transform="translate(0.000000,397.000000) scale(0.100000,-0.100000)"
fill="#FFFFFF" stroke="none">
<path d="M1028 3474 l-868 -434 0 -114 c0 -63 7 -255 15 -427 8 -173 19 -447
25 -609 6 -162 15 -374 20 -470 5 -96 10 -220 10 -275 0 -55 3 -110 6 -122 4
-14 52 -48 147 -106 169 -100 738 -439 1102 -655 143 -85 296 -177 340 -203
44 -27 86 -49 92 -49 7 0 90 46 185 103 168 100 521 311 1108 660 157 93 302
180 322 193 21 13 42 24 47 24 21 0 31 41 31 122 0 46 7 225 15 398 8 173 19
446 25 605 6 160 17 429 25 599 8 169 12 313 9 318 -11 17 -1744 878 -1766
877 -13 0 -413 -196 -890 -435z m852 182 l0 -154 -67 -16 c-67 -16 -136 -34
-285 -75 -43 -11 -113 -30 -155 -42 -43 -11 -103 -27 -133 -35 -30 -8 -86 -24
-125 -34 -38 -10 -164 -44 -279 -75 -114 -31 -212 -55 -218 -53 -8 3 1234 633
1255 637 4 0 7 -68 7 -153z m724 -166 c346 -173 624 -316 618 -318 -5 -1 -104
22 -218 53 -115 31 -240 65 -279 75 -38 10 -95 26 -125 34 -30 8 -90 24 -132
35 -43 12 -113 31 -155 42 -121 33 -212 57 -285 76 l-68 17 0 154 c0 84 4 152
8 150 5 -1 291 -145 636 -318z m-469 -112 c61 -17 144 -39 185 -49 41 -11 134
-36 205 -55 72 -20 162 -44 200 -54 39 -10 95 -26 125 -34 30 -8 91 -24 135
-36 44 -12 105 -28 135 -36 30 -8 87 -24 125 -34 39 -10 120 -32 180 -48 61
-16 122 -32 138 -36 15 -3 27 -12 27 -19 0 -7 -17 -58 -39 -113 -42 -107 -109
-283 -146 -379 -12 -33 -38 -103 -58 -155 -20 -52 -53 -138 -72 -190 -20 -52
-42 -111 -50 -130 -8 -19 -25 -64 -39 -100 -13 -36 -40 -105 -59 -155 -19 -49
-44 -122 -56 -162 -25 -83 -52 -121 -291 -415 -91 -112 -258 -317 -370 -457
-404 -501 -481 -596 -489 -599 -4 -1 -57 60 -118 135 -61 76 -161 201 -223
278 -63 77 -188 232 -279 345 -90 113 -220 273 -286 355 -132 162 -204 263
-222 310 -7 17 -28 73 -48 125 -60 159 -91 240 -133 350 -22 58 -54 143 -72
190 -18 47 -47 126 -66 175 -19 50 -48 124 -63 165 -38 99 -107 280 -137 357
-13 34 -24 66 -24 71 0 8 66 28 310 93 36 9 108 28 160 42 116 32 181 49 283
76 42 12 112 31 155 42 42 12 106 29 142 39 198 52 393 104 450 120 102 29
247 24 385 -12z m-1870 -660 c3 -13 12 -39 20 -58 13 -33 35 -90 90 -235 12
-33 44 -116 70 -185 26 -69 58 -152 70 -185 34 -91 104 -276 120 -315 8 -19
26 -66 40 -105 14 -38 33 -85 41 -103 7 -18 14 -40 14 -50 0 -18 -407 -368
-416 -359 -3 3 -8 56 -10 119 -3 62 -13 322 -24 578 -10 256 -22 551 -25 655
-3 105 -8 207 -11 228 -6 40 10 52 21 15z m3328 -85 c-2 -60 -10 -261 -18
-448 -8 -187 -19 -473 -25 -635 -11 -330 -18 -420 -30 -420 -5 0 -44 30 -88
68 -149 127 -304 257 -316 264 -8 5 -3 28 16 80 28 78 34 93 155 413 44 116
102 266 128 335 63 169 124 327 140 370 8 19 17 45 20 58 14 51 22 15 18 -85z
m-2591 -1506 c119 -150 332 -415 473 -590 141 -175 255 -321 252 -324 -3 -2
-18 4 -34 15 -15 11 -174 107 -353 213 -179 106 -424 251 -545 324 -121 72
-270 160 -332 195 -62 36 -112 70 -112 75 0 6 21 27 47 47 26 21 121 100 212
177 91 77 167 140 170 140 3 0 103 -123 222 -272z m2277 93 c115 -96 210 -178
210 -181 1 -6 -111 -74 -624 -379 -132 -79 -352 -210 -489 -292 -137 -82 -252
-147 -256 -146 -4 2 165 215 374 475 210 259 422 523 471 587 50 63 93 114 97
113 3 -1 101 -81 217 -177z"/>
</g>
</svg>
