<?xml version="1.0" standalone="no"?>
<!DOCTYPE svg PUBLIC "-//W3C//DTD SVG 20010904//EN"
 "http://www.w3.org/TR/2001/REC-SVG-20010904/DTD/svg10.dtd">
<svg version="1.0" xmlns="http://www.w3.org/2000/svg"
 width="384.000000pt" height="397.000000pt" viewBox="0 0 384.000000 397.000000"
 preserveAspectRatio="xMidYMid meet">

<g transform="translate(0.000000,397.000000) scale(0.100000,-0.100000)"
fill="#FFFFFF" stroke="none">
<path d="M1835 3914 c-44 -26 -100 -58 -125 -72 -25 -14 -74 -42 -109 -64 -34
-21 -65 -38 -67 -38 -2 0 -36 -20 -76 -44 -40 -24 -329 -191 -643 -371 -314
-181 -576 -335 -582 -343 -19 -23 -19 -1930 0 -1955 6 -9 134 -87 282 -173
944 -546 1396 -804 1409 -804 8 0 156 82 328 182 172 100 547 316 833 481 286
165 523 305 527 311 4 6 8 448 8 982 0 765 -3 974 -12 982 -14 11 -132 79
-1060 615 -340 197 -621 357 -625 357 -5 0 -44 -21 -88 -46z m360 -551 c148
-258 398 -691 556 -964 558 -965 750 -1301 746 -1305 -4 -4 -3157 -11 -3157
-6 0 4 39 72 420 732 604 1048 719 1248 937 1623 117 203 213 373 213 378 0 5
3 9 8 9 4 0 129 -210 277 -467z m-651 -20 c-136 -235 -398 -689 -582 -1008
-184 -319 -405 -700 -490 -847 -84 -148 -157 -268 -161 -268 -3 0 -4 387 -1
861 l5 861 735 424 c404 233 736 420 738 415 2 -5 -108 -202 -244 -438z m996
170 c256 -148 585 -339 733 -423 l267 -155 0 -857 c0 -472 -3 -858 -7 -858 -5
0 -24 28 -44 63 -20 34 -251 436 -514 892 -263 457 -509 882 -545 945 -245
423 -372 644 -377 658 -5 11 -2 14 8 10 8 -3 223 -127 479 -275z m870 -2510
c0 -5 -285 -172 -633 -372 -347 -201 -681 -394 -740 -429 -59 -35 -114 -61
-122 -58 -15 5 -561 320 -1145 658 -179 104 -326 193 -328 198 -2 7 532 10
1482 10 817 0 1486 -3 1486 -7z"/>
</g>
</svg>
