<?xml version="1.0" standalone="no"?>
<!DOCTYPE svg PUBLIC "-//W3C//DTD SVG 20010904//EN"
 "http://www.w3.org/TR/2001/REC-SVG-20010904/DTD/svg10.dtd">
<svg version="1.0" xmlns="http://www.w3.org/2000/svg"
 width="384.000000pt" height="397.000000pt" viewBox="0 0 384.000000 397.000000"
 preserveAspectRatio="xMidYMid meet">

<g transform="translate(0.000000,397.000000) scale(0.100000,-0.100000)"
fill="#FFFFFF" stroke="none">
<path d="M1835 3899 c-27 -10 -165 -55 -305 -100 -447 -143 -593 -190 -673
-217 l-77 -27 -345 -484 -345 -484 0 -621 0 -622 325 -450 c180 -247 334 -457
344 -468 10 -10 70 -35 132 -56 63 -21 274 -93 469 -160 600 -205 555 -192
609 -176 25 8 210 70 411 139 201 68 435 148 520 177 85 29 162 56 171 61 8 4
84 101 167 216 83 114 235 323 336 463 l186 255 0 620 0 620 -348 487 -347
487 -130 41 c-71 23 -161 53 -200 65 -38 13 -178 58 -310 100 -132 43 -294 95
-359 116 -133 43 -158 45 -231 18z m44 -376 l0 -298 -544 -395 c-299 -217
-555 -401 -568 -409 -21 -13 -46 -6 -288 74 -145 48 -268 91 -272 95 -5 4 135
208 310 453 l318 446 75 25 c70 23 344 111 755 243 94 30 175 56 180 58 35 12
35 10 34 -292z m169 278 c31 -10 172 -56 312 -101 140 -45 280 -90 310 -100
30 -10 120 -39 200 -65 l145 -46 314 -442 c173 -243 315 -446 315 -451 1 -12
-524 -188 -545 -183 -9 3 -139 94 -290 204 -151 110 -403 293 -561 408 l-288
209 0 293 c0 331 -8 306 88 274z m437 -1052 c302 -220 551 -402 553 -404 3 -2
-15 -61 -37 -132 -23 -70 -66 -202 -96 -293 -29 -91 -99 -307 -155 -480 -56
-173 -109 -336 -118 -362 l-17 -48 -691 0 -692 0 -40 123 c-22 67 -93 284
-157 482 -64 198 -141 435 -172 528 -30 92 -53 172 -51 177 4 13 1099 810
1113 810 5 0 257 -181 560 -401z m-2030 -332 l269 -92 38 -120 c40 -122 68
-209 272 -836 64 -195 116 -362 116 -370 0 -10 -326 -448 -355 -477 -2 -3
-517 700 -603 825 l-22 31 0 566 c0 311 3 566 8 565 4 0 128 -42 277 -92z
m3225 -473 l0 -565 -312 -430 c-171 -237 -315 -426 -319 -422 -4 4 -86 111
-182 237 l-174 228 27 87 c16 47 53 165 85 261 31 96 83 256 115 355 32 99 84
259 115 355 32 96 65 198 73 225 l14 51 272 91 c149 50 274 92 279 92 4 1 7
-254 7 -565z m-948 -1141 c205 -269 248 -327 248 -333 0 -3 -42 -20 -92 -37
-51 -17 -280 -95 -508 -173 -228 -79 -427 -145 -441 -147 -15 -3 -62 7 -105
22 -103 36 -889 304 -931 318 -18 6 -33 14 -33 19 0 5 54 79 120 166 66 86
145 190 176 230 l55 72 703 0 704 0 104 -137z"/>
</g>
</svg>
