<?xml version="1.0" standalone="no"?>
<!DOCTYPE svg PUBLIC "-//W3C//DTD SVG 20010904//EN"
 "http://www.w3.org/TR/2001/REC-SVG-20010904/DTD/svg10.dtd">
<svg version="1.0" xmlns="http://www.w3.org/2000/svg"
 width="384.000000pt" height="397.000000pt" viewBox="0 0 384.000000 397.000000"
 preserveAspectRatio="xMidYMid meet">

<g transform="translate(0.000000,397.000000) scale(0.100000,-0.100000)"
fill="#FFFFFF" stroke="none">
<path d="M1898 3918 c-9 -7 -135 -184 -280 -393 -146 -209 -569 -816 -941
-1349 -500 -715 -677 -976 -677 -997 0 -25 14 -36 148 -115 315 -187 415 -246
632 -374 124 -73 257 -152 295 -175 39 -23 142 -85 230 -137 88 -52 260 -154
382 -226 122 -73 226 -132 232 -132 10 0 71 35 411 237 74 44 236 140 360 213
124 73 279 165 345 205 66 39 275 163 463 275 343 203 344 203 340 234 -3 21
-193 302 -598 881 -911 1304 -952 1364 -1123 1610 -149 214 -181 255 -197 255
-3 0 -13 -6 -22 -12z m-18 -474 l0 -296 23 6 c12 3 30 6 40 6 16 0 17 21 17
292 0 251 2 290 14 278 8 -8 77 -105 153 -215 77 -110 256 -366 398 -570 289
-414 408 -584 880 -1260 180 -259 331 -475 336 -480 8 -10 -40 -40 -446 -280
-155 -92 -465 -276 -942 -559 -210 -124 -384 -226 -387 -226 -3 0 -6 200 -6
445 l0 445 -40 0 -40 0 0 -445 c0 -245 -3 -445 -6 -445 -4 0 -104 58 -223 128
-119 71 -310 185 -426 253 -978 579 -1134 674 -1126 683 4 6 212 304 461 661
250 358 589 844 754 1081 166 236 357 512 426 611 69 100 128 182 133 182 4 1
7 -132 7 -295z"/>
</g>
</svg>
