<?xml version="1.0" standalone="no"?>
<!DOCTYPE svg PUBLIC "-//W3C//DTD SVG 20010904//EN"
 "http://www.w3.org/TR/2001/REC-SVG-20010904/DTD/svg10.dtd">
<svg version="1.0" xmlns="http://www.w3.org/2000/svg"
 width="384.000000pt" height="397.000000pt" viewBox="0 0 384.000000 397.000000"
 preserveAspectRatio="xMidYMid meet">

<g transform="translate(0.000000,397.000000) scale(0.100000,-0.100000)"
fill="#FFFFFF" stroke="none">
<path d="M1650 3811 c-140 -81 -511 -295 -825 -476 -314 -180 -578 -335 -588
-343 -16 -14 -17 -71 -15 -994 l3 -980 160 -92 c88 -51 246 -142 350 -203 853
-494 1167 -673 1181 -673 15 0 70 31 799 453 209 121 403 232 430 248 28 15
142 81 255 147 l205 119 3 985 2 985 -717 414 c-395 227 -774 446 -843 486
-68 40 -129 73 -135 73 -5 -1 -125 -67 -265 -149z m773 -235 c872 -503 1057
-611 1057 -616 0 -4 -136 -85 -302 -180 -167 -96 -327 -188 -356 -206 l-53
-31 36 -27 36 -27 72 42 c39 23 92 53 117 67 25 14 88 51 140 82 145 86 347
200 354 200 3 0 5 -408 4 -907 l-3 -907 -495 -286 c-272 -157 -617 -356 -766
-443 -149 -86 -278 -159 -287 -163 -16 -6 -17 28 -17 425 l0 431 -45 0 -45 0
0 -430 c0 -237 -3 -430 -7 -430 -4 0 -126 69 -272 154 -146 85 -495 287 -776
449 l-510 294 -3 908 c-2 861 -1 907 15 900 10 -3 166 -92 348 -197 l330 -191
32 19 c18 11 33 23 34 28 1 6 -159 102 -355 215 -196 113 -356 208 -356 211 0
3 112 69 248 147 136 79 274 159 307 178 391 231 994 574 1008 574 10 1 240
-127 510 -283z"/>
</g>
</svg>
